<svg width="358" height="111" viewBox="0 0 358 111" fill="none" xmlns="http://www.w3.org/2000/svg">
<path d="M0 31.08C0 13.915 13.915 0 31.08 0V110.176C13.915 110.176 0 96.2608 0 79.0958V31.08Z" fill="#3A1F5D"/>
<path d="M31.2661 0C39.5584 9.88845e-08 47.5111 3.2941 53.3746 9.15763C59.2381 15.0212 62.5322 22.9738 62.5322 31.2661C62.5322 39.5584 59.2382 47.511 53.3746 53.3746C47.5111 59.2381 39.5585 62.5322 31.2662 62.5322L31.2661 46.8992C35.4123 46.8992 39.3886 45.2521 42.3204 42.3203C45.2521 39.3886 46.8992 35.4122 46.8992 31.2661C46.8992 27.12 45.2521 23.1436 42.3204 20.2119C39.3886 17.2801 35.4123 15.6331 31.2661 15.6331V0Z" fill="#3A1F5D"/>
<path d="M31.2661 110.548C22.9738 110.548 15.0212 107.254 9.15764 101.39C3.2941 95.5269 1.74636e-06 87.5743 0 79.282C-1.74636e-06 70.9897 3.29409 63.037 9.15763 57.1735C15.0212 51.31 22.9738 48.0159 31.2661 48.0159L31.2661 63.6489C27.12 63.6489 23.1436 65.296 20.2119 68.2277C17.2801 71.1595 15.6331 75.1358 15.6331 79.282C15.6331 83.4281 17.2801 87.4045 20.2119 90.3362C23.1436 93.268 27.12 94.915 31.2661 94.915L31.2661 110.548Z" fill="#3A1F5D"/>
<path d="M31.2661 110.548C35.372 110.548 39.4378 109.739 43.2311 108.168C47.0245 106.597 50.4713 104.294 53.3746 101.39C56.2779 98.4871 58.581 95.0404 60.1522 91.247C61.7235 87.4536 62.5322 83.3879 62.5322 79.282C62.5322 75.1761 61.7235 71.1103 60.1522 67.317C58.581 63.5236 56.2779 60.0768 53.3746 57.1735C50.4713 54.2702 47.0245 51.9671 43.2311 50.3959C39.4378 48.8246 35.372 48.0159 31.2661 48.0159L31.2661 79.282L31.2661 110.548Z" fill="#E15249"/>
<path d="M31.2661 0C22.9738 -9.88846e-08 15.0212 3.2941 9.15763 9.15763C3.2941 15.0212 7.24935e-07 22.9738 0 31.2661C-7.24935e-07 39.5584 3.2941 47.5111 9.15763 53.3746C15.0212 59.2381 22.9738 62.5322 31.2661 62.5322L31.2661 46.8992C27.12 46.8992 23.1436 45.2521 20.2119 42.3204C17.2801 39.3886 15.6331 35.4123 15.6331 31.2661C15.6331 27.12 17.2801 23.1436 20.2119 20.2119C23.1436 17.2801 27.12 15.6331 31.2661 15.6331V0Z" fill="#E15249"/>
<ellipse cx="29.5912" cy="79.1889" rx="17.4941" ry="16.8428" fill="white"/>
<ellipse cx="31.2662" cy="31.1731" rx="17.4941" ry="16.8428" fill="white"/>
<path d="M113.346 63.0266C113.346 64.7844 112.987 66.3551 112.271 67.7385C111.571 69.122 110.603 70.2694 109.366 71.1809C107.934 72.2551 106.355 73.0201 104.63 73.4758C102.921 73.9316 100.748 74.1594 98.1111 74.1594H82.242V37.8069H96.3533C99.283 37.8069 101.423 37.9045 102.774 38.0999C104.141 38.2952 105.492 38.7265 106.827 39.3938C108.21 40.0937 109.236 41.0377 109.903 42.2258C110.587 43.3977 110.929 44.7405 110.929 46.2542C110.929 48.012 110.465 49.5663 109.537 50.9172C108.609 52.2519 107.299 53.2935 105.606 54.0422V54.2375C107.983 54.7096 109.862 55.6861 111.246 57.1672C112.646 58.6484 113.346 60.6015 113.346 63.0266ZM101.334 48.0852C101.334 47.483 101.179 46.8808 100.87 46.2786C100.577 45.6764 100.048 45.2288 99.283 44.9358C98.5994 44.6754 97.7449 44.537 96.7195 44.5208C95.7104 44.4882 94.2863 44.4719 92.4471 44.4719H91.5682V52.1624H93.033C94.5141 52.1624 95.7755 52.1379 96.8172 52.0891C97.8589 52.0403 98.6808 51.8775 99.283 51.6008C100.129 51.2265 100.683 50.7463 100.943 50.1604C101.204 49.5582 101.334 48.8665 101.334 48.0852ZM103.629 62.8801C103.629 61.7245 103.401 60.8375 102.945 60.219C102.506 59.5842 101.749 59.1122 100.675 58.803C99.9422 58.5914 98.9331 58.4775 97.6473 58.4612C96.3615 58.4449 95.0187 58.4368 93.619 58.4368H91.5682V67.4944H92.2518C94.8885 67.4944 96.7765 67.4862 97.9158 67.47C99.0552 67.4537 100.105 67.2421 101.065 66.8352C102.042 66.4283 102.709 65.8912 103.067 65.2239C103.442 64.5403 103.629 63.759 103.629 62.8801ZM147.159 74.1594H138.37V71.1321C136.742 72.3691 135.253 73.3131 133.902 73.9641C132.551 74.5989 130.94 74.9163 129.068 74.9163C126.041 74.9163 123.705 74.0455 122.061 72.304C120.434 70.5624 119.62 67.9908 119.62 64.5891V46.7424H128.458V60.3411C128.458 61.7245 128.499 62.8801 128.58 63.8079C128.678 64.7193 128.889 65.4762 129.215 66.0784C129.524 66.6806 129.988 67.12 130.606 67.3967C131.241 67.6734 132.12 67.8118 133.243 67.8118C133.992 67.8118 134.822 67.6734 135.733 67.3967C136.645 67.12 137.524 66.7131 138.37 66.176V46.7424H147.159V74.1594ZM169.766 74.8918C167.374 74.8918 165.185 74.607 163.199 74.0374C161.23 73.4677 159.513 72.5888 158.048 71.4006C156.599 70.2125 155.476 68.7151 154.679 66.9084C153.881 65.1018 153.482 62.9859 153.482 60.5608C153.482 58.0055 153.905 55.8 154.752 53.9446C155.614 52.0891 156.811 50.551 158.341 49.3303C159.822 48.1747 161.531 47.3284 163.468 46.7913C165.404 46.2542 167.415 45.9856 169.498 45.9856C171.37 45.9856 173.095 46.189 174.674 46.5959C176.252 47.0028 177.725 47.5318 179.093 48.1829V55.678H177.847C177.506 55.385 177.091 55.0432 176.602 54.6526C176.13 54.262 175.544 53.8795 174.845 53.5051C174.177 53.1471 173.445 52.8541 172.647 52.6262C171.85 52.3821 170.922 52.26 169.864 52.26C167.52 52.26 165.714 53.0087 164.444 54.5061C163.191 55.9872 162.564 58.0055 162.564 60.5608C162.564 63.1975 163.207 65.1995 164.493 66.5667C165.795 67.9338 167.634 68.6174 170.011 68.6174C171.117 68.6174 172.11 68.4954 172.989 68.2512C173.884 67.9908 174.625 67.6897 175.211 67.3479C175.764 67.0224 176.252 66.6806 176.676 66.3225C177.099 65.9644 177.489 65.6145 177.847 65.2727H179.093V72.7678C177.709 73.4189 176.261 73.9316 174.747 74.3059C173.249 74.6965 171.589 74.8918 169.766 74.8918ZM214.029 74.1594H203.8L196.109 62.2209L193.717 65.1262V74.1594H184.928V36.1711H193.717V58.8518L203.189 46.7424H213.321L203.458 58.5588L214.029 74.1594ZM242.301 65.468C242.301 68.3 241.031 70.5868 238.492 72.3284C235.953 74.0536 232.478 74.9163 228.067 74.9163C225.626 74.9163 223.412 74.6884 221.427 74.2327C219.441 73.7769 217.846 73.2724 216.641 72.719V65.4924H217.447C217.887 65.8017 218.391 66.1435 218.961 66.5178C219.547 66.8759 220.369 67.2665 221.427 67.6897C222.338 68.064 223.372 68.3896 224.527 68.6663C225.683 68.9267 226.92 69.0569 228.238 69.0569C229.963 69.0569 231.241 68.8697 232.071 68.4954C232.901 68.1047 233.316 67.5351 233.316 66.7864C233.316 66.1191 233.072 65.6389 232.584 65.3459C232.096 65.0367 231.168 64.7437 229.801 64.467C229.15 64.3206 228.263 64.1659 227.139 64.0032C226.033 63.8241 225.024 63.6125 224.112 63.3684C221.622 62.7174 219.775 61.7083 218.57 60.3411C217.366 58.9576 216.763 57.2405 216.763 55.1897C216.763 52.553 218.009 50.3639 220.499 48.6223C223.005 46.8645 226.423 45.9856 230.753 45.9856C232.804 45.9856 234.765 46.1972 236.637 46.6204C238.525 47.0273 239.998 47.4667 241.055 47.9387V54.8723H240.299C238.997 53.9771 237.507 53.2528 235.831 52.6995C234.171 52.1298 232.486 51.845 230.777 51.845C229.361 51.845 228.165 52.0403 227.188 52.4309C226.228 52.8215 225.748 53.3749 225.748 54.0911C225.748 54.7421 225.968 55.2385 226.407 55.5803C226.846 55.9221 227.88 56.2639 229.508 56.6057C230.403 56.7847 231.363 56.9638 232.388 57.1428C233.43 57.3056 234.472 57.5172 235.513 57.7776C237.825 58.3798 239.534 59.3319 240.64 60.634C241.747 61.9198 242.301 63.5312 242.301 65.468ZM275.699 74.1594H266.861V60.5608C266.861 59.454 266.804 58.3554 266.69 57.2649C266.576 56.1581 266.381 55.3443 266.104 54.8235C265.779 54.2213 265.299 53.7818 264.664 53.5051C264.045 53.2284 263.175 53.0901 262.052 53.0901C261.254 53.0901 260.44 53.2203 259.61 53.4807C258.796 53.7411 257.909 54.1562 256.949 54.7258V74.1594H248.16V36.1711H256.949V49.7698C258.512 48.5491 260.009 47.6132 261.441 46.9622C262.89 46.3111 264.493 45.9856 266.251 45.9856C269.213 45.9856 271.524 46.8482 273.184 48.5735C274.861 50.2987 275.699 52.8785 275.699 56.3127V74.1594ZM310.806 62.0745H290.689C290.819 64.2229 291.633 65.8668 293.131 67.0061C294.644 68.1454 296.866 68.7151 299.796 68.7151C301.651 68.7151 303.45 68.3814 305.191 67.7141C306.933 67.0468 308.308 66.3306 309.317 65.5657H310.294V72.6213C308.308 73.4189 306.436 73.9967 304.679 74.3547C302.921 74.7128 300.976 74.8918 298.844 74.8918C293.342 74.8918 289.127 73.6549 286.197 71.1809C283.267 68.7069 281.803 65.1832 281.803 60.6096C281.803 56.0849 283.186 52.5042 285.953 49.8674C288.736 47.2144 292.545 45.8879 297.379 45.8879C301.838 45.8879 305.191 47.0191 307.437 49.2815C309.683 51.5276 310.806 54.7665 310.806 58.9983V62.0745ZM302.066 56.9231C302.017 55.0839 301.562 53.7004 300.699 52.7727C299.836 51.845 298.494 51.3811 296.671 51.3811C294.978 51.3811 293.586 51.8206 292.496 52.6995C291.405 53.5784 290.795 54.9862 290.665 56.9231H302.066ZM325.797 74.1594H317.008V36.1711H325.797V74.1594ZM351.871 42.6165H351.212C350.821 42.5025 350.308 42.3723 349.674 42.2258C349.055 42.0793 348.388 42.0061 347.672 42.0061C345.946 42.0061 344.775 42.3153 344.156 42.9338C343.554 43.5523 343.253 44.7486 343.253 46.5227V46.7424H350.04V52.6995H343.546V74.1594H334.757V52.6995H330.997V46.7424H334.757V45.9856C334.757 42.6327 335.644 40.1181 337.418 38.4417C339.208 36.7652 341.91 35.927 345.523 35.927C346.825 35.927 348.005 35.9758 349.063 36.0735C350.121 36.1549 351.057 36.2688 351.871 36.4153V42.6165Z" fill="url(#paint0_linear_9_2455)"/>
<defs>
<linearGradient id="paint0_linear_9_2455" x1="217.802" y1="24.1594" x2="217.802" y2="85.6564" gradientUnits="userSpaceOnUse">
<stop stop-color="#E15249"/>
<stop offset="0.890625" stop-color="#3A1F5D"/>
</linearGradient>
</defs>
</svg>
