<svg width="278" height="80" viewBox="0 0 278 80" fill="none" xmlns="http://www.w3.org/2000/svg">
<path d="M0 22.4916C0 10.0698 10.0698 0 22.4916 0V79.7306C10.0698 79.7306 0 69.6608 0 57.2391V22.4916Z" fill="#3A1F5D"/>
<path d="M22.6263 0C28.6271 7.15595e-08 34.3822 2.38383 38.6254 6.62707C42.8687 10.8703 45.2525 16.6254 45.2525 22.6262C45.2525 28.6271 42.8687 34.3822 38.6255 38.6254C34.3822 42.8687 28.6272 45.2525 22.6263 45.2525L22.6263 33.9394C25.6267 33.9394 28.5042 32.7475 30.6259 30.6258C32.7475 28.5042 33.9394 25.6267 33.9394 22.6263C33.9394 19.6258 32.7475 16.7483 30.6258 14.6267C28.5042 12.505 25.6267 11.3131 22.6263 11.3131V0Z" fill="#3A1F5D"/>
<path d="M22.6263 80C16.6254 80 10.8703 77.6161 6.62708 73.3729C2.38383 69.1296 1.26378e-06 63.3746 0 57.3737C-1.26378e-06 51.3728 2.38383 45.6178 6.62707 41.3745C10.8703 37.1313 16.6254 34.7474 22.6262 34.7474L22.6263 46.0606C19.6258 46.0606 16.7483 47.2525 14.6267 49.3741C12.505 51.4957 11.3131 54.3733 11.3131 57.3737C11.3131 60.3741 12.505 63.2517 14.6267 65.3733C16.7483 67.4949 19.6258 68.6868 22.6263 68.6868L22.6263 80Z" fill="#3A1F5D"/>
<path d="M22.6263 80C25.5976 80 28.5398 79.4147 31.285 78.2776C34.0301 77.1406 36.5244 75.4739 38.6254 73.3729C40.7265 71.2718 42.3931 68.7775 43.5302 66.0324C44.6673 63.2872 45.2525 60.345 45.2525 57.3737C45.2525 54.4024 44.6673 51.4601 43.5302 48.715C42.3931 45.9699 40.7265 43.4756 38.6254 41.3745C36.5244 39.2735 34.0301 37.6068 31.285 36.4698C28.5398 35.3327 25.5976 34.7474 22.6263 34.7474L22.6263 57.3737L22.6263 80Z" fill="#E15249"/>
<path d="M22.6263 0C16.6254 -7.15595e-08 10.8703 2.38383 6.62708 6.62708C2.38383 10.8703 5.24612e-07 16.6254 0 22.6263C-5.24612e-07 28.6271 2.38383 34.3822 6.62708 38.6254C10.8703 42.8687 16.6254 45.2525 22.6263 45.2525L22.6263 33.9394C19.6258 33.9394 16.7483 32.7475 14.6267 30.6259C12.505 28.5042 11.3131 25.6267 11.3131 22.6263C11.3131 19.6258 12.505 16.7483 14.6267 14.6267C16.7483 12.505 19.6258 11.3131 22.6263 11.3131V0Z" fill="#E15249"/>
<ellipse cx="21.4143" cy="57.3065" rx="12.6599" ry="12.1886" fill="white"/>
<ellipse cx="22.6262" cy="22.5589" rx="12.6599" ry="12.1886" fill="white"/>
<path d="M84.4077 47.8379C84.4077 49.2441 84.1213 50.5007 83.5483 51.6074C82.9884 52.7142 82.2137 53.6322 81.2241 54.3613C80.0783 55.2207 78.8153 55.8327 77.4351 56.1973C76.0679 56.5618 74.3296 56.7441 72.2202 56.7441H59.5249V27.6621H70.814C73.1577 27.6621 74.87 27.7402 75.9507 27.8965C77.0444 28.0527 78.1252 28.3978 79.1929 28.9316C80.2996 29.4915 81.12 30.2467 81.6538 31.1973C82.2007 32.1348 82.4741 33.209 82.4741 34.4199C82.4741 35.8262 82.103 37.0697 81.3608 38.1504C80.6187 39.2181 79.5705 40.0514 78.2163 40.6504V40.8066C80.1174 41.1842 81.6213 41.9655 82.728 43.1504C83.8478 44.3353 84.4077 45.8978 84.4077 47.8379ZM74.7983 35.8848C74.7983 35.403 74.6746 34.9212 74.4272 34.4395C74.1929 33.9577 73.7697 33.5996 73.1577 33.3652C72.6108 33.1569 71.9272 33.0462 71.1069 33.0332C70.2996 33.0072 69.1603 32.9941 67.689 32.9941H66.9858V39.1465H68.1577C69.3426 39.1465 70.3517 39.127 71.1851 39.0879C72.0184 39.0488 72.6759 38.9186 73.1577 38.6973C73.8348 38.3978 74.2775 38.0137 74.4858 37.5449C74.6942 37.0632 74.7983 36.5098 74.7983 35.8848ZM76.6343 47.7207C76.6343 46.7962 76.452 46.0866 76.0874 45.5918C75.7358 45.084 75.1304 44.7064 74.271 44.459C73.6851 44.2897 72.8778 44.1986 71.8491 44.1855C70.8205 44.1725 69.7463 44.166 68.6265 44.166H66.9858V51.4121H67.5327C69.6421 51.4121 71.1525 51.4056 72.064 51.3926C72.9754 51.3796 73.8153 51.2103 74.5835 50.8848C75.3647 50.5592 75.8986 50.1296 76.1851 49.5957C76.4845 49.0488 76.6343 48.4238 76.6343 47.7207ZM111.458 56.7441H104.427V54.3223C103.125 55.3118 101.934 56.0671 100.853 56.5879C99.7723 57.0957 98.4832 57.3496 96.9858 57.3496C94.564 57.3496 92.6955 56.653 91.3804 55.2598C90.0783 53.8665 89.4272 51.8092 89.4272 49.0879V34.8105H96.4976V45.6895C96.4976 46.7962 96.5301 47.7207 96.5952 48.4629C96.6733 49.1921 96.8426 49.7975 97.103 50.2793C97.3504 50.7611 97.7215 51.1126 98.2163 51.334C98.7241 51.5553 99.4272 51.666 100.326 51.666C100.925 51.666 101.589 51.5553 102.318 51.334C103.047 51.1126 103.75 50.7871 104.427 50.3574V34.8105H111.458V56.7441ZM129.544 57.3301C127.63 57.3301 125.879 57.1022 124.291 56.6465C122.715 56.1908 121.341 55.4876 120.169 54.5371C119.011 53.5866 118.112 52.3887 117.474 50.9434C116.836 49.498 116.517 47.8053 116.517 45.8652C116.517 43.821 116.856 42.0566 117.533 40.5723C118.223 39.0879 119.18 37.8574 120.404 36.8809C121.589 35.9564 122.956 35.2793 124.505 34.8496C126.055 34.4199 127.663 34.2051 129.33 34.2051C130.827 34.2051 132.207 34.3678 133.47 34.6934C134.733 35.0189 135.912 35.4421 137.005 35.9629V41.959H136.009C135.736 41.7246 135.404 41.4512 135.013 41.1387C134.636 40.8262 134.167 40.5202 133.607 40.2207C133.073 39.9342 132.487 39.6999 131.849 39.5176C131.211 39.3223 130.469 39.2246 129.623 39.2246C127.748 39.2246 126.302 39.8236 125.287 41.0215C124.284 42.2064 123.783 43.821 123.783 45.8652C123.783 47.9746 124.297 49.5762 125.326 50.6699C126.367 51.7637 127.839 52.3105 129.74 52.3105C130.625 52.3105 131.419 52.2129 132.123 52.0176C132.839 51.8092 133.431 51.5684 133.9 51.2949C134.343 51.0345 134.733 50.7611 135.072 50.4746C135.41 50.1882 135.723 49.9082 136.009 49.6348H137.005V55.6309C135.899 56.1517 134.74 56.5618 133.529 56.8613C132.331 57.1738 131.003 57.3301 129.544 57.3301ZM164.955 56.7441H156.771L150.619 47.1934L148.705 49.5176V56.7441H141.673V26.3535H148.705V44.498L156.283 34.8105H164.388L156.498 44.2637L164.955 56.7441ZM187.572 49.791C187.572 52.0566 186.556 53.8861 184.525 55.2793C182.494 56.6595 179.714 57.3496 176.185 57.3496C174.232 57.3496 172.461 57.1673 170.873 56.8027C169.284 56.4382 168.008 56.0345 167.044 55.5918V49.8105H167.689C168.041 50.0579 168.444 50.3314 168.9 50.6309C169.369 50.9173 170.026 51.2298 170.873 51.5684C171.602 51.8678 172.429 52.1283 173.353 52.3496C174.278 52.5579 175.267 52.6621 176.322 52.6621C177.702 52.6621 178.724 52.5124 179.388 52.2129C180.052 51.9004 180.384 51.4447 180.384 50.8457C180.384 50.3118 180.189 49.9277 179.798 49.6934C179.408 49.446 178.666 49.2116 177.572 48.9902C177.051 48.873 176.341 48.7493 175.443 48.6191C174.557 48.4759 173.75 48.3066 173.021 48.1113C171.029 47.5905 169.551 46.7832 168.587 45.6895C167.624 44.5827 167.142 43.209 167.142 41.5684C167.142 39.459 168.138 37.7077 170.13 36.3145C172.136 34.9082 174.87 34.2051 178.333 34.2051C179.974 34.2051 181.543 34.3743 183.041 34.7129C184.551 35.0384 185.729 35.39 186.576 35.7676V41.3145H185.97C184.929 40.5983 183.737 40.0189 182.396 39.5762C181.068 39.1204 179.72 38.8926 178.353 38.8926C177.22 38.8926 176.263 39.0488 175.482 39.3613C174.714 39.6738 174.33 40.1165 174.33 40.6895C174.33 41.2103 174.505 41.6074 174.857 41.8809C175.208 42.1543 176.035 42.4277 177.337 42.7012C178.054 42.8444 178.822 42.9876 179.642 43.1309C180.475 43.2611 181.309 43.4303 182.142 43.6387C183.991 44.1204 185.358 44.8822 186.244 45.9238C187.129 46.9525 187.572 48.2415 187.572 49.791ZM214.291 56.7441H207.22V45.8652C207.22 44.9798 207.175 44.1009 207.083 43.2285C206.992 42.3431 206.836 41.6921 206.615 41.2754C206.354 40.7936 205.97 40.4421 205.462 40.2207C204.968 39.9993 204.271 39.8887 203.373 39.8887C202.735 39.8887 202.083 39.9928 201.419 40.2012C200.768 40.4095 200.059 40.7415 199.291 41.1973V56.7441H192.259V26.3535H199.291V37.2324C200.541 36.2559 201.738 35.5072 202.884 34.9863C204.043 34.4655 205.326 34.2051 206.732 34.2051C209.102 34.2051 210.951 34.8952 212.279 36.2754C213.62 37.6556 214.291 39.7194 214.291 42.4668V56.7441ZM242.376 47.0762H226.283C226.387 48.7949 227.038 50.11 228.236 51.0215C229.447 51.9329 231.224 52.3887 233.568 52.3887C235.052 52.3887 236.491 52.1217 237.884 51.5879C239.278 51.054 240.378 50.4811 241.185 49.8691H241.966V55.5137C240.378 56.1517 238.88 56.6139 237.474 56.9004C236.068 57.1868 234.512 57.3301 232.806 57.3301C228.405 57.3301 225.033 56.3405 222.689 54.3613C220.345 52.3822 219.173 49.5632 219.173 45.9043C219.173 42.2845 220.28 39.4199 222.494 37.3105C224.72 35.1882 227.767 34.127 231.634 34.127C235.202 34.127 237.884 35.0319 239.681 36.8418C241.478 38.6387 242.376 41.2298 242.376 44.6152V47.0762ZM235.384 42.9551C235.345 41.4837 234.981 40.377 234.291 39.6348C233.6 38.8926 232.526 38.5215 231.068 38.5215C229.714 38.5215 228.6 38.873 227.728 39.5762C226.856 40.2793 226.367 41.4056 226.263 42.9551H235.384ZM254.369 56.7441H247.337V26.3535H254.369V56.7441ZM275.228 31.5098H274.701C274.388 31.4186 273.978 31.3145 273.47 31.1973C272.975 31.0801 272.442 31.0215 271.869 31.0215C270.488 31.0215 269.551 31.2689 269.056 31.7637C268.574 32.2585 268.333 33.2155 268.333 34.6348V34.8105H273.763V39.5762H268.568V56.7441H261.537V39.5762H258.529V34.8105H261.537V34.2051C261.537 31.5228 262.246 29.5111 263.666 28.1699C265.098 26.8288 267.259 26.1582 270.15 26.1582C271.192 26.1582 272.136 26.1973 272.982 26.2754C273.828 26.3405 274.577 26.4316 275.228 26.5488V31.5098Z" fill="url(#paint0_linear_93_651)"/>
<defs>
<linearGradient id="paint0_linear_93_651" x1="166.512" y1="16.7441" x2="166.512" y2="61.3953" gradientUnits="userSpaceOnUse">
<stop stop-color="#E15249"/>
<stop offset="0.890625" stop-color="#3A1F5D"/>
</linearGradient>
</defs>
</svg>
