<svg width="278" height="80" viewBox="0 0 278 80" fill="none" xmlns="http://www.w3.org/2000/svg">
<path d="M0 22.4916C0 10.0698 10.0698 0 22.4916 0V0V79.7306V79.7306C10.0698 79.7306 0 69.6608 0 57.2391V22.4916Z" fill="#3A1F5D"/>
<path d="M22.6263 0C28.6271 7.15595e-08 34.3822 2.38383 38.6254 6.62707C42.8687 10.8703 45.2525 16.6254 45.2525 22.6262C45.2525 28.6271 42.8687 34.3822 38.6255 38.6254C34.3822 42.8687 28.6272 45.2525 22.6263 45.2525L22.6263 33.9394C25.6267 33.9394 28.5042 32.7475 30.6259 30.6258C32.7475 28.5042 33.9394 25.6267 33.9394 22.6263C33.9394 19.6258 32.7475 16.7483 30.6258 14.6267C28.5042 12.505 25.6267 11.3131 22.6263 11.3131L22.6263 0Z" fill="#3A1F5D"/>
<path d="M22.6263 80C16.6254 80 10.8703 77.6161 6.62708 73.3729C2.38383 69.1296 1.26378e-06 63.3746 0 57.3737C-1.26378e-06 51.3728 2.38383 45.6178 6.62707 41.3745C10.8703 37.1313 16.6254 34.7474 22.6263 34.7474L22.6263 46.0606C19.6258 46.0606 16.7483 47.2525 14.6267 49.3741C12.505 51.4957 11.3131 54.3733 11.3131 57.3737C11.3131 60.3741 12.505 63.2517 14.6267 65.3733C16.7483 67.4949 19.6258 68.6868 22.6263 68.6868L22.6263 80Z" fill="#3A1F5D"/>
<path d="M22.6263 80C25.5976 80 28.5398 79.4147 31.285 78.2776C34.0301 77.1406 36.5244 75.4739 38.6254 73.3729C40.7265 71.2718 42.3931 68.7775 43.5302 66.0324C44.6673 63.2872 45.2525 60.345 45.2525 57.3737C45.2525 54.4024 44.6673 51.4601 43.5302 48.715C42.3931 45.9699 40.7265 43.4756 38.6254 41.3745C36.5244 39.2735 34.0301 37.6068 31.285 36.4698C28.5398 35.3327 25.5976 34.7474 22.6263 34.7474L22.6263 57.3737L22.6263 80Z" fill="#E15249"/>
<path d="M22.6263 0C16.6254 -7.15595e-08 10.8703 2.38383 6.62708 6.62708C2.38383 10.8703 5.24612e-07 16.6254 0 22.6263C-5.24612e-07 28.6271 2.38383 34.3822 6.62708 38.6254C10.8703 42.8687 16.6254 45.2525 22.6263 45.2525L22.6263 33.9394C19.6258 33.9394 16.7483 32.7475 14.6267 30.6259C12.505 28.5042 11.3131 25.6267 11.3131 22.6263C11.3131 19.6258 12.505 16.7483 14.6267 14.6267C16.7483 12.505 19.6258 11.3131 22.6263 11.3131L22.6263 0Z" fill="#E15249"/>
<ellipse cx="21.4143" cy="57.3064" rx="12.6599" ry="12.1886" fill="white"/>
<ellipse cx="22.6262" cy="22.559" rx="12.6599" ry="12.1886" fill="white"/>
<path d="M84.4077 47.838C84.4077 49.2442 84.1213 50.5007 83.5483 51.6075C82.9884 52.7143 82.2137 53.6322 81.2241 54.3614C80.0783 55.2208 78.8153 55.8327 77.4351 56.1973C76.0679 56.5619 74.3296 56.7442 72.2202 56.7442H59.5249V27.6622H70.814C73.1577 27.6622 74.87 27.7403 75.9507 27.8965C77.0444 28.0528 78.1252 28.3978 79.1929 28.9317C80.2996 29.4916 81.12 30.2468 81.6538 31.1973C82.2007 32.1348 82.4741 33.209 82.4741 34.42C82.4741 35.8262 82.103 37.0697 81.3608 38.1505C80.6187 39.2182 79.5705 40.0515 78.2163 40.6505V40.8067C80.1174 41.1843 81.6213 41.9656 82.728 43.1505C83.8478 44.3353 84.4077 45.8978 84.4077 47.838ZM74.7983 35.8848C74.7983 35.4031 74.6746 34.9213 74.4272 34.4395C74.1929 33.9577 73.7697 33.5997 73.1577 33.3653C72.6108 33.157 71.9272 33.0463 71.1069 33.0333C70.2996 33.0072 69.1603 32.9942 67.689 32.9942H66.9858V39.1465H68.1577C69.3426 39.1465 70.3517 39.127 71.1851 39.088C72.0184 39.0489 72.6759 38.9187 73.1577 38.6973C73.8348 38.3978 74.2775 38.0137 74.4858 37.545C74.6942 37.0632 74.7983 36.5098 74.7983 35.8848ZM76.6343 47.7208C76.6343 46.7963 76.452 46.0866 76.0874 45.5919C75.7358 45.084 75.1304 44.7064 74.271 44.459C73.6851 44.2898 72.8778 44.1986 71.8491 44.1856C70.8205 44.1726 69.7463 44.1661 68.6265 44.1661H66.9858V51.4122H67.5327C69.6421 51.4122 71.1525 51.4057 72.064 51.3926C72.9754 51.3796 73.8153 51.2103 74.5835 50.8848C75.3647 50.5593 75.8986 50.1296 76.1851 49.5958C76.4845 49.0489 76.6343 48.4239 76.6343 47.7208ZM111.458 56.7442H104.427V54.3223C103.125 55.3119 101.934 56.0671 100.853 56.588C99.7723 57.0958 98.4832 57.3497 96.9858 57.3497C94.564 57.3497 92.6955 56.6531 91.3804 55.2598C90.0783 53.8666 89.4272 51.8093 89.4272 49.088V34.8106H96.4976V45.6895C96.4976 46.7963 96.5301 47.7208 96.5952 48.463C96.6733 49.1921 96.8426 49.7976 97.103 50.2794C97.3504 50.7611 97.7215 51.1127 98.2163 51.334C98.7241 51.5554 99.4272 51.6661 100.326 51.6661C100.925 51.6661 101.589 51.5554 102.318 51.334C103.047 51.1127 103.75 50.7872 104.427 50.3575V34.8106H111.458V56.7442ZM129.544 57.3301C127.63 57.3301 125.879 57.1023 124.291 56.6465C122.715 56.1908 121.341 55.4877 120.169 54.5372C119.011 53.5866 118.112 52.3887 117.474 50.9434C116.836 49.4981 116.517 47.8054 116.517 45.8653C116.517 43.821 116.856 42.0567 117.533 40.5723C118.223 39.088 119.18 37.8575 120.404 36.8809C121.589 35.9564 122.956 35.2794 124.505 34.8497C126.055 34.42 127.663 34.2051 129.33 34.2051C130.827 34.2051 132.207 34.3679 133.47 34.6934C134.733 35.0189 135.912 35.4421 137.005 35.963V41.959H136.009C135.736 41.7247 135.404 41.4512 135.013 41.1387C134.636 40.8262 134.167 40.5202 133.607 40.2208C133.073 39.9343 132.487 39.6999 131.849 39.5176C131.211 39.3223 130.469 39.2247 129.623 39.2247C127.748 39.2247 126.302 39.8236 125.287 41.0215C124.284 42.2064 123.783 43.821 123.783 45.8653C123.783 47.9747 124.297 49.5762 125.326 50.67C126.367 51.7637 127.839 52.3106 129.74 52.3106C130.625 52.3106 131.419 52.213 132.123 52.0176C132.839 51.8093 133.431 51.5684 133.9 51.295C134.343 51.0346 134.733 50.7611 135.072 50.4747C135.41 50.1882 135.723 49.9083 136.009 49.6348H137.005V55.6309C135.899 56.1518 134.74 56.5619 133.529 56.8614C132.331 57.1739 131.003 57.3301 129.544 57.3301ZM164.955 56.7442H156.771L150.619 47.1934L148.705 49.5176V56.7442H141.673V26.3536H148.705V44.4981L156.283 34.8106H164.388L156.498 44.2637L164.955 56.7442ZM187.572 49.7911C187.572 52.0567 186.556 53.8861 184.525 55.2794C182.494 56.6596 179.714 57.3497 176.185 57.3497C174.232 57.3497 172.461 57.1674 170.873 56.8028C169.284 56.4382 168.008 56.0346 167.044 55.5919V49.8106H167.689C168.041 50.058 168.444 50.3314 168.9 50.6309C169.369 50.9174 170.026 51.2299 170.873 51.5684C171.602 51.8679 172.429 52.1283 173.353 52.3497C174.278 52.558 175.267 52.6622 176.322 52.6622C177.702 52.6622 178.724 52.5124 179.388 52.213C180.052 51.9005 180.384 51.4447 180.384 50.8458C180.384 50.3119 180.189 49.9278 179.798 49.6934C179.408 49.446 178.666 49.2116 177.572 48.9903C177.051 48.8731 176.341 48.7494 175.443 48.6192C174.557 48.476 173.75 48.3067 173.021 48.1114C171.029 47.5906 169.551 46.7833 168.587 45.6895C167.624 44.5827 167.142 43.209 167.142 41.5684C167.142 39.459 168.138 37.7077 170.13 36.3145C172.136 34.9083 174.87 34.2051 178.333 34.2051C179.974 34.2051 181.543 34.3744 183.041 34.713C184.551 35.0385 185.729 35.39 186.576 35.7676V41.3145H185.97C184.929 40.5984 183.737 40.0189 182.396 39.5762C181.068 39.1205 179.72 38.8926 178.353 38.8926C177.22 38.8926 176.263 39.0489 175.482 39.3614C174.714 39.6739 174.33 40.1166 174.33 40.6895C174.33 41.2103 174.505 41.6075 174.857 41.8809C175.208 42.1544 176.035 42.4278 177.337 42.7012C178.054 42.8445 178.822 42.9877 179.642 43.1309C180.475 43.2611 181.309 43.4304 182.142 43.6387C183.991 44.1205 185.358 44.8822 186.244 45.9239C187.129 46.9525 187.572 48.2416 187.572 49.7911ZM214.291 56.7442H207.22V45.8653C207.22 44.9799 207.175 44.101 207.083 43.2286C206.992 42.3432 206.836 41.6921 206.615 41.2755C206.354 40.7937 205.97 40.4421 205.462 40.2208C204.968 39.9994 204.271 39.8887 203.373 39.8887C202.735 39.8887 202.083 39.9929 201.419 40.2012C200.768 40.4096 200.059 40.7416 199.291 41.1973V56.7442H192.259V26.3536H199.291V37.2325C200.541 36.2559 201.738 35.5072 202.884 34.9864C204.043 34.4656 205.326 34.2051 206.732 34.2051C209.102 34.2051 210.951 34.8952 212.279 36.2755C213.62 37.6557 214.291 39.7195 214.291 42.4669V56.7442ZM242.376 47.0762H226.283C226.387 48.795 227.038 50.1101 228.236 51.0215C229.447 51.933 231.224 52.3887 233.568 52.3887C235.052 52.3887 236.491 52.1218 237.884 51.588C239.278 51.0541 240.378 50.4812 241.185 49.8692H241.966V55.5137C240.378 56.1518 238.88 56.614 237.474 56.9005C236.068 57.1869 234.512 57.3301 232.806 57.3301C228.405 57.3301 225.033 56.3406 222.689 54.3614C220.345 52.3822 219.173 49.5632 219.173 45.9044C219.173 42.2846 220.28 39.42 222.494 37.3106C224.72 35.1882 227.767 34.127 231.634 34.127C235.202 34.127 237.884 35.032 239.681 36.8419C241.478 38.6387 242.376 41.2299 242.376 44.6153V47.0762ZM235.384 42.9551C235.345 41.4838 234.981 40.377 234.291 39.6348C233.6 38.8926 232.526 38.5215 231.068 38.5215C229.714 38.5215 228.6 38.8731 227.728 39.5762C226.856 40.2794 226.367 41.4057 226.263 42.9551H235.384ZM254.369 56.7442H247.337V26.3536H254.369V56.7442ZM275.228 31.5098H274.701C274.388 31.4187 273.978 31.3145 273.47 31.1973C272.975 31.0801 272.442 31.0215 271.869 31.0215C270.488 31.0215 269.551 31.2689 269.056 31.7637C268.574 32.2585 268.333 33.2156 268.333 34.6348V34.8106H273.763V39.5762H268.568V56.7442H261.537V39.5762H258.529V34.8106H261.537V34.2051C261.537 31.5228 262.246 29.5111 263.666 28.17C265.098 26.8288 267.259 26.1583 270.15 26.1583C271.192 26.1583 272.136 26.1973 272.982 26.2755C273.828 26.3406 274.577 26.4317 275.228 26.5489V31.5098Z" fill="url(#paint0_linear_34_773)"/>
<defs>
<linearGradient id="paint0_linear_34_773" x1="166.512" y1="16.7442" x2="166.512" y2="61.3954" gradientUnits="userSpaceOnUse">
<stop stop-color="#E15249"/>
<stop offset="0.890625" stop-color="#3A1F5D"/>
</linearGradient>
</defs>
</svg>
