<svg width="18" height="18" viewBox="0 0 18 18" fill="none" xmlns="http://www.w3.org/2000/svg">
<path d="M16.8748 1.13747C16.7591 1.02159 16.6218 0.929661 16.4706 0.866934C16.3194 0.804207 16.1572 0.771919 15.9935 0.771919C15.8298 0.771919 15.6677 0.804207 15.5165 0.866934C15.3653 0.929661 15.2279 1.02159 15.1123 1.13747L8.99979 7.23747L2.88729 1.12497C2.77156 1.00925 2.63418 0.917447 2.48297 0.854815C2.33177 0.792184 2.1697 0.759949 2.00604 0.759949C1.84238 0.759949 1.68032 0.792184 1.52911 0.854815C1.37791 0.917447 1.24052 1.00925 1.12479 1.12497C1.00906 1.2407 0.917264 1.37809 0.854632 1.5293C0.792001 1.6805 0.759766 1.84256 0.759766 2.00622C0.759766 2.16989 0.792001 2.33195 0.854632 2.48315C0.917264 2.63436 1.00906 2.77175 1.12479 2.88747L7.23729 8.99997L1.12479 15.1125C1.00906 15.2282 0.917264 15.3656 0.854632 15.5168C0.792001 15.668 0.759766 15.8301 0.759766 15.9937C0.759766 16.1574 0.792001 16.3194 0.854632 16.4707C0.917264 16.6219 1.00906 16.7592 1.12479 16.875C1.24052 16.9907 1.37791 17.0825 1.52911 17.1451C1.68032 17.2078 1.84238 17.24 2.00604 17.24C2.1697 17.24 2.33177 17.2078 2.48297 17.1451C2.63418 17.0825 2.77156 16.9907 2.88729 16.875L8.99979 10.7625L15.1123 16.875C15.228 16.9907 15.3654 17.0825 15.5166 17.1451C15.6678 17.2078 15.8299 17.24 15.9935 17.24C16.1572 17.24 16.3193 17.2078 16.4705 17.1451C16.6217 17.0825 16.7591 16.9907 16.8748 16.875C16.9905 16.7592 17.0823 16.6219 17.1449 16.4707C17.2076 16.3194 17.2398 16.1574 17.2398 15.9937C17.2398 15.8301 17.2076 15.668 17.1449 15.5168C17.0823 15.3656 16.9905 15.2282 16.8748 15.1125L10.7623 8.99997L16.8748 2.88747C17.3498 2.41247 17.3498 1.61247 16.8748 1.13747Z" fill="black"/>
</svg>
