<svg width="278" height="86" viewBox="0 0 278 86" fill="none" xmlns="http://www.w3.org/2000/svg">
<path d="M0 22.4916C0 10.0698 10.0698 0 22.4916 0V79.7306C10.0698 79.7306 0 69.6608 0 57.2391V22.4916Z" fill="#3A1F5D"/>
<path d="M22.6263 0C28.6271 7.15595e-08 34.3822 2.38383 38.6254 6.62707C42.8687 10.8703 45.2525 16.6254 45.2525 22.6262C45.2525 28.6271 42.8687 34.3822 38.6255 38.6254C34.3822 42.8687 28.6272 45.2525 22.6263 45.2525L22.6263 33.9394C25.6267 33.9394 28.5042 32.7475 30.6259 30.6258C32.7475 28.5042 33.9394 25.6267 33.9394 22.6263C33.9394 19.6258 32.7475 16.7483 30.6258 14.6267C28.5042 12.505 25.6267 11.3131 22.6263 11.3131V0Z" fill="#3A1F5D"/>
<path d="M22.6263 80C16.6254 80 10.8703 77.6161 6.62708 73.3729C2.38383 69.1296 1.26378e-06 63.3746 0 57.3737C-1.26378e-06 51.3728 2.38383 45.6178 6.62707 41.3745C10.8703 37.1313 16.6254 34.7474 22.6262 34.7474L22.6263 46.0606C19.6258 46.0606 16.7483 47.2525 14.6267 49.3741C12.505 51.4957 11.3131 54.3733 11.3131 57.3737C11.3131 60.3741 12.505 63.2517 14.6267 65.3733C16.7483 67.4949 19.6258 68.6868 22.6263 68.6868L22.6263 80Z" fill="#3A1F5D"/>
<path d="M22.6263 80C25.5976 80 28.5398 79.4147 31.285 78.2776C34.0301 77.1406 36.5244 75.4739 38.6254 73.3729C40.7265 71.2718 42.3931 68.7775 43.5302 66.0324C44.6673 63.2872 45.2525 60.345 45.2525 57.3737C45.2525 54.4024 44.6673 51.4601 43.5302 48.715C42.3931 45.9699 40.7265 43.4756 38.6254 41.3745C36.5244 39.2735 34.0301 37.6068 31.285 36.4698C28.5398 35.3327 25.5976 34.7474 22.6263 34.7474L22.6263 57.3737L22.6263 80Z" fill="#E15249"/>
<path d="M22.6263 0C16.6254 -7.15595e-08 10.8703 2.38383 6.62708 6.62708C2.38383 10.8703 5.24612e-07 16.6254 0 22.6263C-5.24612e-07 28.6271 2.38383 34.3822 6.62708 38.6254C10.8703 42.8687 16.6254 45.2525 22.6263 45.2525L22.6263 33.9394C19.6258 33.9394 16.7483 32.7475 14.6267 30.6259C12.505 28.5042 11.3131 25.6267 11.3131 22.6263C11.3131 19.6258 12.505 16.7483 14.6267 14.6267C16.7483 12.505 19.6258 11.3131 22.6263 11.3131V0Z" fill="#E15249"/>
<ellipse cx="21.4142" cy="57.3064" rx="12.6599" ry="12.1886" fill="white"/>
<ellipse cx="22.6264" cy="22.559" rx="12.6599" ry="12.1886" fill="white"/>
<path d="M84.4077 47.838C84.4077 49.2442 84.1213 50.5007 83.5483 51.6075C82.9884 52.7143 82.2137 53.6322 81.2241 54.3614C80.0783 55.2208 78.8153 55.8327 77.4351 56.1973C76.0679 56.5619 74.3296 56.7442 72.2202 56.7442H59.5249V27.6622H70.814C73.1577 27.6622 74.87 27.7403 75.9507 27.8965C77.0444 28.0528 78.1252 28.3978 79.1929 28.9317C80.2996 29.4916 81.12 30.2468 81.6538 31.1973C82.2007 32.1348 82.4741 33.209 82.4741 34.42C82.4741 35.8262 82.103 37.0697 81.3608 38.1505C80.6187 39.2182 79.5705 40.0515 78.2163 40.6505V40.8067C80.1174 41.1843 81.6213 41.9656 82.728 43.1505C83.8478 44.3353 84.4077 45.8978 84.4077 47.838ZM74.7983 35.8848C74.7983 35.4031 74.6746 34.9213 74.4272 34.4395C74.1929 33.9577 73.7697 33.5997 73.1577 33.3653C72.6108 33.157 71.9272 33.0463 71.1069 33.0333C70.2996 33.0072 69.1603 32.9942 67.689 32.9942H66.9858V39.1465H68.1577C69.3426 39.1465 70.3517 39.127 71.1851 39.088C72.0184 39.0489 72.6759 38.9187 73.1577 38.6973C73.8348 38.3978 74.2775 38.0137 74.4858 37.545C74.6942 37.0632 74.7983 36.5098 74.7983 35.8848ZM76.6343 47.7208C76.6343 46.7963 76.452 46.0866 76.0874 45.5919C75.7358 45.084 75.1304 44.7064 74.271 44.459C73.6851 44.2898 72.8778 44.1986 71.8491 44.1856C70.8205 44.1726 69.7463 44.1661 68.6265 44.1661H66.9858V51.4122H67.5327C69.6421 51.4122 71.1525 51.4057 72.064 51.3926C72.9754 51.3796 73.8153 51.2103 74.5835 50.8848C75.3647 50.5593 75.8986 50.1296 76.1851 49.5958C76.4845 49.0489 76.6343 48.4239 76.6343 47.7208ZM111.458 56.7442H104.427V54.3223C103.125 55.3119 101.934 56.0671 100.853 56.588C99.7723 57.0958 98.4832 57.3497 96.9858 57.3497C94.564 57.3497 92.6955 56.6531 91.3804 55.2598C90.0783 53.8666 89.4272 51.8093 89.4272 49.088V34.8106H96.4976V45.6895C96.4976 46.7963 96.5301 47.7208 96.5952 48.463C96.6733 49.1921 96.8426 49.7976 97.103 50.2794C97.3504 50.7611 97.7215 51.1127 98.2163 51.334C98.7241 51.5554 99.4272 51.6661 100.326 51.6661C100.925 51.6661 101.589 51.5554 102.318 51.334C103.047 51.1127 103.75 50.7872 104.427 50.3575V34.8106H111.458V56.7442ZM129.544 57.3301C127.63 57.3301 125.879 57.1023 124.291 56.6465C122.715 56.1908 121.341 55.4877 120.169 54.5372C119.011 53.5866 118.112 52.3887 117.474 50.9434C116.836 49.4981 116.517 47.8054 116.517 45.8653C116.517 43.821 116.856 42.0567 117.533 40.5723C118.223 39.088 119.18 37.8575 120.404 36.8809C121.589 35.9564 122.956 35.2794 124.505 34.8497C126.055 34.42 127.663 34.2051 129.33 34.2051C130.827 34.2051 132.207 34.3679 133.47 34.6934C134.733 35.0189 135.912 35.4421 137.005 35.963V41.959H136.009C135.736 41.7247 135.404 41.4512 135.013 41.1387C134.636 40.8262 134.167 40.5202 133.607 40.2208C133.073 39.9343 132.487 39.6999 131.849 39.5176C131.211 39.3223 130.469 39.2247 129.623 39.2247C127.748 39.2247 126.302 39.8236 125.287 41.0215C124.284 42.2064 123.783 43.821 123.783 45.8653C123.783 47.9747 124.297 49.5762 125.326 50.67C126.367 51.7637 127.839 52.3106 129.74 52.3106C130.625 52.3106 131.419 52.213 132.123 52.0176C132.839 51.8093 133.431 51.5684 133.9 51.295C134.343 51.0346 134.733 50.7611 135.072 50.4747C135.41 50.1882 135.723 49.9083 136.009 49.6348H137.005V55.6309C135.899 56.1518 134.74 56.5619 133.529 56.8614C132.331 57.1739 131.003 57.3301 129.544 57.3301ZM164.955 56.7442H156.771L150.619 47.1934L148.705 49.5176V56.7442H141.673V26.3536H148.705V44.4981L156.283 34.8106H164.388L156.498 44.2637L164.955 56.7442ZM187.572 49.7911C187.572 52.0567 186.556 53.8861 184.525 55.2794C182.494 56.6596 179.714 57.3497 176.185 57.3497C174.232 57.3497 172.461 57.1674 170.873 56.8028C169.284 56.4382 168.008 56.0346 167.044 55.5919V49.8106H167.689C168.041 50.058 168.444 50.3314 168.9 50.6309C169.369 50.9174 170.026 51.2299 170.873 51.5684C171.602 51.8679 172.429 52.1283 173.353 52.3497C174.278 52.558 175.267 52.6622 176.322 52.6622C177.702 52.6622 178.724 52.5124 179.388 52.213C180.052 51.9005 180.384 51.4447 180.384 50.8458C180.384 50.3119 180.189 49.9278 179.798 49.6934C179.408 49.446 178.666 49.2116 177.572 48.9903C177.051 48.8731 176.341 48.7494 175.443 48.6192C174.557 48.476 173.75 48.3067 173.021 48.1114C171.029 47.5906 169.551 46.7833 168.587 45.6895C167.624 44.5827 167.142 43.209 167.142 41.5684C167.142 39.459 168.138 37.7077 170.13 36.3145C172.136 34.9083 174.87 34.2051 178.333 34.2051C179.974 34.2051 181.543 34.3744 183.041 34.713C184.551 35.0385 185.729 35.39 186.576 35.7676V41.3145H185.97C184.929 40.5984 183.737 40.0189 182.396 39.5762C181.068 39.1205 179.72 38.8926 178.353 38.8926C177.22 38.8926 176.263 39.0489 175.482 39.3614C174.714 39.6739 174.33 40.1166 174.33 40.6895C174.33 41.2103 174.505 41.6075 174.857 41.8809C175.208 42.1544 176.035 42.4278 177.337 42.7012C178.054 42.8445 178.822 42.9877 179.642 43.1309C180.475 43.2611 181.309 43.4304 182.142 43.6387C183.991 44.1205 185.358 44.8822 186.244 45.9239C187.129 46.9525 187.572 48.2416 187.572 49.7911ZM214.291 56.7442H207.22V45.8653C207.22 44.9799 207.175 44.101 207.083 43.2286C206.992 42.3432 206.836 41.6921 206.615 41.2755C206.354 40.7937 205.97 40.4421 205.462 40.2208C204.968 39.9994 204.271 39.8887 203.373 39.8887C202.735 39.8887 202.083 39.9929 201.419 40.2012C200.768 40.4096 200.059 40.7416 199.291 41.1973V56.7442H192.259V26.3536H199.291V37.2325C200.541 36.2559 201.738 35.5072 202.884 34.9864C204.043 34.4656 205.326 34.2051 206.732 34.2051C209.102 34.2051 210.951 34.8952 212.279 36.2755C213.62 37.6557 214.291 39.7195 214.291 42.4669V56.7442ZM242.376 47.0762H226.283C226.387 48.795 227.038 50.1101 228.236 51.0215C229.447 51.933 231.224 52.3887 233.568 52.3887C235.052 52.3887 236.491 52.1218 237.884 51.588C239.278 51.0541 240.378 50.4812 241.185 49.8692H241.966V55.5137C240.378 56.1518 238.88 56.614 237.474 56.9005C236.068 57.1869 234.512 57.3301 232.806 57.3301C228.405 57.3301 225.033 56.3406 222.689 54.3614C220.345 52.3822 219.173 49.5632 219.173 45.9044C219.173 42.2846 220.28 39.42 222.494 37.3106C224.72 35.1882 227.767 34.127 231.634 34.127C235.202 34.127 237.884 35.032 239.681 36.8419C241.478 38.6387 242.376 41.2299 242.376 44.6153V47.0762ZM235.384 42.9551C235.345 41.4838 234.981 40.377 234.291 39.6348C233.6 38.8926 232.526 38.5215 231.068 38.5215C229.714 38.5215 228.6 38.8731 227.728 39.5762C226.856 40.2794 226.367 41.4057 226.263 42.9551H235.384ZM254.369 56.7442H247.337V26.3536H254.369V56.7442ZM275.228 31.5098H274.701C274.388 31.4187 273.978 31.3145 273.47 31.1973C272.975 31.0801 272.442 31.0215 271.869 31.0215C270.488 31.0215 269.551 31.2689 269.056 31.7637C268.574 32.2585 268.333 33.2156 268.333 34.6348V34.8106H273.763V39.5762H268.568V56.7442H261.537V39.5762H258.529V34.8106H261.537V34.2051C261.537 31.5228 262.246 29.5111 263.666 28.17C265.098 26.8288 267.259 26.1583 270.15 26.1583C271.192 26.1583 272.136 26.1973 272.982 26.2755C273.828 26.3406 274.577 26.4317 275.228 26.5489V31.5098Z" fill="url(#paint0_linear_34_811)"/>
<path d="M113.293 78H109.416L108.41 75.0605H103.02L102.014 78H98.2344L103.605 63.459H107.922L113.293 78ZM107.502 72.3945L105.715 67.1797L103.928 72.3945H107.502ZM125.852 78H122.336V76.8574C121.73 77.3522 121.164 77.7168 120.637 77.9512C120.109 78.1855 119.501 78.3027 118.811 78.3027C117.476 78.3027 116.408 77.7884 115.607 76.7598C114.807 75.7311 114.406 74.3444 114.406 72.5996C114.406 71.6686 114.54 70.8451 114.807 70.1289C115.08 69.4062 115.451 68.7878 115.92 68.2734C116.363 67.7852 116.9 67.4076 117.531 67.1406C118.163 66.8672 118.794 66.7305 119.426 66.7305C120.083 66.7305 120.62 66.8021 121.037 66.9453C121.46 67.082 121.893 67.2578 122.336 67.4727V62.8047H125.852V78ZM122.336 74.9727V69.5918C122.089 69.4876 121.828 69.4128 121.555 69.3672C121.281 69.3216 121.031 69.2988 120.803 69.2988C119.878 69.2988 119.185 69.5885 118.723 70.168C118.26 70.7409 118.029 71.5384 118.029 72.5605C118.029 73.6348 118.215 74.416 118.586 74.9043C118.957 75.3861 119.553 75.627 120.373 75.627C120.692 75.627 121.031 75.5684 121.389 75.4512C121.747 75.3275 122.062 75.168 122.336 74.9727ZM139.895 70.2266V78H136.359V72.5215C136.359 71.9876 136.346 71.5352 136.32 71.1641C136.294 70.7865 136.223 70.4805 136.105 70.2461C135.988 70.0117 135.809 69.8424 135.568 69.7383C135.334 69.6276 135.002 69.5723 134.572 69.5723C134.227 69.5723 133.892 69.6439 133.566 69.7871C133.241 69.9238 132.948 70.0703 132.688 70.2266V78H129.172V67.0332H132.688V68.2441C133.293 67.7689 133.872 67.3978 134.426 67.1309C134.979 66.8639 135.591 66.7305 136.262 66.7305C136.984 66.7305 137.622 66.8932 138.176 67.2188C138.729 67.5378 139.162 68.0098 139.475 68.6348C140.178 68.0423 140.861 67.5768 141.525 67.2383C142.189 66.8997 142.84 66.7305 143.479 66.7305C144.663 66.7305 145.562 67.0853 146.174 67.7949C146.792 68.5046 147.102 69.5267 147.102 70.8613V78H143.566V72.5215C143.566 71.9811 143.553 71.5254 143.527 71.1543C143.508 70.7832 143.439 70.4805 143.322 70.2461C143.212 70.0117 143.036 69.8424 142.795 69.7383C142.554 69.6276 142.215 69.5723 141.779 69.5723C141.486 69.5723 141.2 69.6243 140.92 69.7285C140.64 69.8262 140.298 69.9922 139.895 70.2266ZM153.859 78H150.344V67.0332H153.859V78ZM153.957 65.4707H150.246V62.8047H153.957V65.4707ZM168.195 78H164.66V72.5605C164.66 72.1178 164.637 71.6784 164.592 71.2422C164.546 70.7995 164.468 70.474 164.357 70.2656C164.227 70.0247 164.035 69.849 163.781 69.7383C163.534 69.6276 163.186 69.5723 162.736 69.5723C162.417 69.5723 162.092 69.6243 161.76 69.7285C161.434 69.8327 161.079 69.9987 160.695 70.2266V78H157.18V67.0332H160.695V68.2441C161.32 67.7559 161.919 67.3815 162.492 67.1211C163.072 66.8607 163.713 66.7305 164.416 66.7305C165.601 66.7305 166.525 67.0755 167.189 67.7656C167.86 68.4557 168.195 69.4876 168.195 70.8613V78ZM190.471 68.0488C190.471 68.6999 190.357 69.3379 190.129 69.9629C189.901 70.5814 189.576 71.1022 189.152 71.5254C188.573 72.0983 187.925 72.5312 187.209 72.8242C186.499 73.1172 185.614 73.2637 184.553 73.2637H182.219V78H178.469V63.459H184.641C185.565 63.459 186.343 63.5404 186.975 63.7031C187.613 63.8594 188.176 64.097 188.664 64.416C189.25 64.8001 189.696 65.2917 190.002 65.8906C190.314 66.4896 190.471 67.209 190.471 68.0488ZM186.594 68.1367C186.594 67.7266 186.483 67.375 186.262 67.082C186.04 66.7826 185.783 66.5742 185.49 66.457C185.1 66.3008 184.719 66.2161 184.348 66.2031C183.977 66.1836 183.482 66.1738 182.863 66.1738H182.219V70.5293H183.293C183.931 70.5293 184.455 70.4902 184.865 70.4121C185.282 70.334 185.63 70.1777 185.91 69.9434C186.151 69.735 186.324 69.4876 186.428 69.2012C186.538 68.9082 186.594 68.5534 186.594 68.1367ZM199.582 75.1387V72.8535C199.107 72.8926 198.592 72.9479 198.039 73.0195C197.486 73.0846 197.066 73.1628 196.779 73.2539C196.428 73.3646 196.158 73.5273 195.969 73.7422C195.786 73.9505 195.695 74.2272 195.695 74.5723C195.695 74.8001 195.715 74.9857 195.754 75.1289C195.793 75.2721 195.891 75.4089 196.047 75.5391C196.197 75.6693 196.376 75.7669 196.584 75.832C196.792 75.8906 197.118 75.9199 197.561 75.9199C197.912 75.9199 198.267 75.8483 198.625 75.7051C198.99 75.5618 199.309 75.373 199.582 75.1387ZM199.582 76.8379C199.393 76.9811 199.159 77.1536 198.879 77.3555C198.599 77.5573 198.335 77.7168 198.088 77.834C197.743 77.9902 197.385 78.1042 197.014 78.1758C196.643 78.2539 196.236 78.293 195.793 78.293C194.751 78.293 193.879 77.9707 193.176 77.3262C192.473 76.6816 192.121 75.8581 192.121 74.8555C192.121 74.0547 192.3 73.4004 192.658 72.8926C193.016 72.3848 193.524 71.9844 194.182 71.6914C194.833 71.3984 195.64 71.1901 196.604 71.0664C197.567 70.9427 198.566 70.8516 199.602 70.793V70.7344C199.602 70.1289 199.354 69.7122 198.859 69.4844C198.365 69.25 197.635 69.1328 196.672 69.1328C196.092 69.1328 195.474 69.237 194.816 69.4453C194.159 69.6471 193.687 69.8034 193.4 69.9141H193.078V67.2676C193.449 67.1699 194.051 67.056 194.885 66.9258C195.725 66.7891 196.564 66.7207 197.404 66.7207C199.403 66.7207 200.845 67.0299 201.73 67.6484C202.622 68.2604 203.068 69.224 203.068 70.5391V78H199.582V76.8379ZM216.965 76.7402C216.965 77.7689 216.818 78.6348 216.525 79.3379C216.232 80.041 215.822 80.5911 215.295 80.9883C214.768 81.3919 214.13 81.6816 213.381 81.8574C212.639 82.0397 211.799 82.1309 210.861 82.1309C210.1 82.1309 209.348 82.0853 208.605 81.9941C207.87 81.903 207.232 81.7923 206.691 81.6621V78.918H207.121C207.551 79.0872 208.075 79.2402 208.693 79.377C209.312 79.5202 209.865 79.5918 210.354 79.5918C211.005 79.5918 211.532 79.5299 211.936 79.4062C212.346 79.2891 212.658 79.1198 212.873 78.8984C213.075 78.6901 213.221 78.4232 213.312 78.0977C213.404 77.7721 213.449 77.3815 213.449 76.9258V76.7207C213.026 77.0658 212.557 77.3392 212.043 77.541C211.529 77.7428 210.956 77.8438 210.324 77.8438C208.788 77.8438 207.603 77.3815 206.77 76.457C205.936 75.5326 205.52 74.1263 205.52 72.2383C205.52 71.3333 205.646 70.5521 205.9 69.8945C206.154 69.237 206.512 68.6641 206.975 68.1758C207.404 67.7201 207.932 67.3652 208.557 67.1113C209.188 66.8574 209.833 66.7305 210.49 66.7305C211.083 66.7305 211.62 66.8021 212.102 66.9453C212.59 67.082 213.033 67.2741 213.43 67.5215L213.557 67.0332H216.965V76.7402ZM213.449 74.543V69.5723C213.247 69.4876 213 69.4225 212.707 69.377C212.414 69.3249 212.15 69.2988 211.916 69.2988C210.992 69.2988 210.298 69.5658 209.836 70.0996C209.374 70.627 209.143 71.3659 209.143 72.3164C209.143 73.3711 209.338 74.1068 209.729 74.5234C210.126 74.9401 210.712 75.1484 211.486 75.1484C211.838 75.1484 212.183 75.0931 212.521 74.9824C212.86 74.8717 213.169 74.7253 213.449 74.543ZM231.086 73.166H223.039C223.091 74.0254 223.417 74.6829 224.016 75.1387C224.621 75.5944 225.51 75.8223 226.682 75.8223C227.424 75.8223 228.143 75.6888 228.84 75.4219C229.536 75.1549 230.087 74.8685 230.49 74.5625H230.881V77.3848C230.087 77.7038 229.338 77.9349 228.635 78.0781C227.932 78.2214 227.154 78.293 226.301 78.293C224.1 78.293 222.414 77.7982 221.242 76.8086C220.07 75.819 219.484 74.4095 219.484 72.5801C219.484 70.7702 220.038 69.3379 221.145 68.2832C222.258 67.222 223.781 66.6914 225.715 66.6914C227.499 66.6914 228.84 67.1439 229.738 68.0488C230.637 68.9473 231.086 70.2428 231.086 71.9355V73.166ZM227.59 71.1055C227.57 70.3698 227.388 69.8164 227.043 69.4453C226.698 69.0742 226.161 68.8887 225.432 68.8887C224.755 68.8887 224.198 69.0645 223.762 69.416C223.326 69.7676 223.081 70.3307 223.029 71.1055H227.59Z" fill="url(#paint1_linear_34_811)"/>
<defs>
<linearGradient id="paint0_linear_34_811" x1="166.512" y1="16.7442" x2="166.512" y2="61.3954" gradientUnits="userSpaceOnUse">
<stop stop-color="#E15249"/>
<stop offset="0.890625" stop-color="#3A1F5D"/>
</linearGradient>
<linearGradient id="paint1_linear_34_811" x1="167" y1="58" x2="167" y2="86" gradientUnits="userSpaceOnUse">
<stop stop-color="#E15249"/>
<stop offset="0.890625" stop-color="#3A1F5D"/>
</linearGradient>
</defs>
</svg>
