<svg width="358" height="111" viewBox="0 0 358 111" fill="none" xmlns="http://www.w3.org/2000/svg">
<path d="M0 31.08C0 13.915 13.915 0 31.08 0V110.176C13.915 110.176 0 96.2608 0 79.0958V31.08Z" fill="#3A1F5D"/>
<path d="M31.2661 0C39.5584 9.88845e-08 47.5111 3.2941 53.3746 9.15763C59.2381 15.0212 62.5322 22.9738 62.5322 31.2661C62.5322 39.5584 59.2382 47.511 53.3746 53.3746C47.5111 59.2381 39.5585 62.5322 31.2662 62.5322L31.2661 46.8992C35.4123 46.8992 39.3886 45.2521 42.3204 42.3203C45.2521 39.3886 46.8992 35.4122 46.8992 31.2661C46.8992 27.12 45.2521 23.1436 42.3204 20.2119C39.3886 17.2801 35.4123 15.6331 31.2661 15.6331V0Z" fill="#3A1F5D"/>
<path d="M31.2661 110.548C22.9738 110.548 15.0212 107.254 9.15764 101.39C3.2941 95.5269 1.74636e-06 87.5743 0 79.282C-1.74636e-06 70.9897 3.29409 63.037 9.15763 57.1735C15.0212 51.31 22.9738 48.0159 31.2661 48.0159L31.2661 63.6489C27.12 63.6489 23.1436 65.296 20.2119 68.2277C17.2801 71.1595 15.6331 75.1358 15.6331 79.282C15.6331 83.4281 17.2801 87.4045 20.2119 90.3362C23.1436 93.268 27.12 94.915 31.2661 94.915L31.2661 110.548Z" fill="#3A1F5D"/>
<path d="M31.2661 110.548C35.372 110.548 39.4378 109.739 43.2311 108.168C47.0245 106.597 50.4713 104.294 53.3746 101.39C56.2779 98.4871 58.581 95.0404 60.1522 91.247C61.7235 87.4536 62.5322 83.3879 62.5322 79.282C62.5322 75.1761 61.7235 71.1103 60.1522 67.317C58.581 63.5236 56.2779 60.0768 53.3746 57.1735C50.4713 54.2702 47.0245 51.9671 43.2311 50.3959C39.4378 48.8246 35.372 48.0159 31.2661 48.0159L31.2661 79.282L31.2661 110.548Z" fill="#E15249"/>
<path d="M31.2661 0C22.9738 -9.88846e-08 15.0212 3.2941 9.15763 9.15763C3.2941 15.0212 7.24935e-07 22.9738 0 31.2661C-7.24935e-07 39.5584 3.2941 47.5111 9.15763 53.3746C15.0212 59.2381 22.9738 62.5322 31.2661 62.5322L31.2661 46.8992C27.12 46.8992 23.1436 45.2521 20.2119 42.3204C17.2801 39.3886 15.6331 35.4123 15.6331 31.2661C15.6331 27.12 17.2801 23.1436 20.2119 20.2119C23.1436 17.2801 27.12 15.6331 31.2661 15.6331V0Z" fill="#E15249"/>
<ellipse cx="29.5912" cy="79.1888" rx="17.4941" ry="16.8428" fill="white"/>
<ellipse cx="31.2662" cy="31.1731" rx="17.4941" ry="16.8428" fill="white"/>
<path d="M113.345 63.0267C113.345 64.7845 112.987 66.3552 112.271 67.7386C111.571 69.1221 110.603 70.2696 109.366 71.181C107.934 72.2552 106.355 73.0202 104.63 73.476C102.921 73.9317 100.748 74.1595 98.1111 74.1595H82.2419V37.807H96.3533C99.283 37.807 101.423 37.9047 102.774 38.1C104.141 38.2953 105.492 38.7266 106.827 39.3939C108.21 40.0938 109.236 41.0378 109.903 42.226C110.587 43.3978 110.928 44.7406 110.928 46.2543C110.928 48.0121 110.465 49.5664 109.537 50.9174C108.609 52.252 107.299 53.2937 105.606 54.0424V54.2377C107.983 54.7097 109.862 55.6862 111.246 57.1674C112.646 58.6485 113.345 60.6016 113.345 63.0267ZM101.334 48.0853C101.334 47.4831 101.179 46.8809 100.87 46.2787C100.577 45.6765 100.048 45.2289 99.283 44.9359C98.5994 44.6755 97.7449 44.5372 96.7195 44.5209C95.7104 44.4883 94.2862 44.472 92.447 44.472H91.5681V52.1625H93.033C94.5141 52.1625 95.7755 52.1381 96.8171 52.0892C97.8588 52.0404 98.6807 51.8776 99.283 51.601C100.129 51.2266 100.683 50.7465 100.943 50.1605C101.204 49.5583 101.334 48.8666 101.334 48.0853ZM103.629 62.8802C103.629 61.7247 103.401 60.8376 102.945 60.2191C102.506 59.5844 101.749 59.1123 100.675 58.8031C99.9421 58.5915 98.933 58.4776 97.6472 58.4613C96.3614 58.445 95.0186 58.4369 93.6189 58.4369H91.5681V67.4945H92.2517C94.8884 67.4945 96.7764 67.4864 97.9158 67.4701C99.0551 67.4538 100.105 67.2422 101.065 66.8353C102.042 66.4284 102.709 65.8913 103.067 65.224C103.441 64.5404 103.629 63.7592 103.629 62.8802ZM147.159 74.1595H138.37V71.1322C136.742 72.3692 135.253 73.3132 133.902 73.9642C132.551 74.599 130.94 74.9164 129.068 74.9164C126.041 74.9164 123.705 74.0456 122.061 72.3041C120.434 70.5625 119.62 67.9909 119.62 64.5892V46.7426H128.458V60.3412C128.458 61.7247 128.498 62.8802 128.58 63.808C128.677 64.7194 128.889 65.4763 129.215 66.0785C129.524 66.6807 129.988 67.1202 130.606 67.3969C131.241 67.6735 132.12 67.8119 133.243 67.8119C133.992 67.8119 134.822 67.6735 135.733 67.3969C136.645 67.1202 137.524 66.7133 138.37 66.1761V46.7426H147.159V74.1595ZM169.766 74.892C167.374 74.892 165.185 74.6071 163.199 74.0375C161.23 73.4678 159.512 72.5889 158.048 71.4008C156.599 70.2126 155.476 68.7152 154.678 66.9086C153.881 65.1019 153.482 62.986 153.482 60.5609C153.482 58.0056 153.905 55.8002 154.752 53.9447C155.614 52.0892 156.811 50.5511 158.341 49.3304C159.822 48.1748 161.531 47.3285 163.468 46.7914C165.404 46.2543 167.414 45.9857 169.498 45.9857C171.37 45.9857 173.095 46.1892 174.674 46.5961C176.252 47.003 177.725 47.5319 179.093 48.183V55.6781H177.847C177.506 55.3851 177.091 55.0433 176.602 54.6527C176.13 54.2621 175.544 53.8796 174.844 53.5052C174.177 53.1472 173.445 52.8542 172.647 52.6263C171.85 52.3822 170.922 52.2601 169.864 52.2601C167.52 52.2601 165.714 53.0088 164.444 54.5062C163.191 55.9873 162.564 58.0056 162.564 60.5609C162.564 63.1976 163.207 65.1996 164.493 66.5668C165.795 67.934 167.634 68.6176 170.01 68.6176C171.117 68.6176 172.11 68.4955 172.989 68.2513C173.884 67.9909 174.625 67.6898 175.211 67.348C175.764 67.0225 176.252 66.6807 176.676 66.3226C177.099 65.9646 177.489 65.6146 177.847 65.2728H179.093V72.7679C177.709 73.419 176.26 73.9317 174.747 74.306C173.249 74.6967 171.589 74.892 169.766 74.892ZM214.029 74.1595H203.8L196.109 62.2211L193.717 65.1263V74.1595H184.927V36.1713H193.717V58.8519L203.189 46.7426H213.321L203.458 58.559L214.029 74.1595ZM242.301 65.4681C242.301 68.3002 241.031 70.587 238.492 72.3285C235.953 74.0538 232.478 74.9164 228.067 74.9164C225.626 74.9164 223.412 74.6885 221.427 74.2328C219.441 73.7771 217.846 73.2725 216.641 72.7191V65.4926H217.447C217.886 65.8018 218.391 66.1436 218.961 66.5179C219.547 66.876 220.369 67.2666 221.427 67.6898C222.338 68.0642 223.372 68.3897 224.527 68.6664C225.683 68.9268 226.92 69.057 228.238 69.057C229.963 69.057 231.241 68.8698 232.071 68.4955C232.901 68.1049 233.316 67.5352 233.316 66.7865C233.316 66.1192 233.072 65.639 232.584 65.3461C232.095 65.0368 231.168 64.7439 229.801 64.4672C229.149 64.3207 228.262 64.1661 227.139 64.0033C226.033 63.8243 225.024 63.6127 224.112 63.3685C221.622 62.7175 219.774 61.7084 218.57 60.3412C217.366 58.9577 216.763 57.2406 216.763 55.1898C216.763 52.5531 218.009 50.364 220.499 48.6224C223.005 46.8646 226.423 45.9857 230.753 45.9857C232.803 45.9857 234.765 46.1973 236.636 46.6205C238.524 47.0274 239.997 47.4668 241.055 47.9388V54.8724H240.299C238.997 53.9773 237.507 53.253 235.831 52.6996C234.171 52.1299 232.486 51.8451 230.777 51.8451C229.361 51.8451 228.165 52.0404 227.188 52.431C226.228 52.8217 225.748 53.375 225.748 54.0912C225.748 54.7422 225.968 55.2386 226.407 55.5804C226.846 55.9222 227.88 56.264 229.508 56.6058C230.403 56.7849 231.363 56.9639 232.388 57.1429C233.43 57.3057 234.472 57.5173 235.513 57.7777C237.825 58.3799 239.534 59.3321 240.64 60.6342C241.747 61.92 242.301 63.5313 242.301 65.4681ZM275.699 74.1595H266.861V60.5609C266.861 59.4541 266.804 58.3555 266.69 57.265C266.576 56.1582 266.381 55.3444 266.104 54.8236C265.779 54.2214 265.299 53.7819 264.664 53.5052C264.045 53.2286 263.175 53.0902 262.052 53.0902C261.254 53.0902 260.44 53.2204 259.61 53.4808C258.796 53.7413 257.909 54.1563 256.949 54.726V74.1595H248.16V36.1713H256.949V49.7699C258.511 48.5492 260.009 47.6133 261.441 46.9623C262.89 46.3112 264.493 45.9857 266.251 45.9857C269.213 45.9857 271.524 46.8483 273.184 48.5736C274.861 50.2989 275.699 52.8786 275.699 56.3129V74.1595ZM310.806 62.0746H290.689C290.819 64.223 291.633 65.8669 293.131 67.0062C294.644 68.1455 296.866 68.7152 299.796 68.7152C301.651 68.7152 303.45 68.3816 305.191 67.7142C306.933 67.0469 308.308 66.3308 309.317 65.5658H310.294V72.6215C308.308 73.419 306.436 73.9968 304.678 74.3549C302.921 74.7129 300.976 74.892 298.844 74.892C293.342 74.892 289.127 73.655 286.197 71.181C283.267 68.7071 281.802 65.1833 281.802 60.6097C281.802 56.085 283.186 52.5043 285.953 49.8676C288.736 47.2146 292.545 45.8881 297.379 45.8881C301.838 45.8881 305.191 47.0192 307.437 49.2816C309.683 51.5277 310.806 54.7666 310.806 58.9984V62.0746ZM302.066 56.9232C302.017 55.084 301.562 53.7006 300.699 52.7728C299.836 51.8451 298.494 51.3812 296.671 51.3812C294.978 51.3812 293.586 51.8207 292.496 52.6996C291.405 53.5785 290.795 54.9864 290.665 56.9232H302.066ZM325.797 74.1595H317.008V36.1713H325.797V74.1595ZM351.871 42.6166H351.212C350.821 42.5026 350.308 42.3724 349.674 42.226C349.055 42.0795 348.388 42.0062 347.672 42.0062C345.946 42.0062 344.774 42.3155 344.156 42.934C343.554 43.5524 343.253 44.7487 343.253 46.5228V46.7426H350.04V52.6996H343.546V74.1595H334.757V52.6996H330.997V46.7426H334.757V45.9857C334.757 42.6329 335.644 40.1182 337.418 38.4418C339.208 36.7653 341.91 35.9271 345.523 35.9271C346.825 35.9271 348.005 35.976 349.063 36.0736C350.121 36.155 351.057 36.2689 351.871 36.4154V42.6166Z" fill="url(#paint0_linear_2_4)"/>
<defs>
<linearGradient id="paint0_linear_2_4" x1="217.802" y1="24.1595" x2="217.802" y2="85.6565" gradientUnits="userSpaceOnUse">
<stop stop-color="#E15249"/>
<stop offset="0.890625" stop-color="#3A1F5D"/>
</linearGradient>
</defs>
</svg>
