<svg width="139" height="40" viewBox="0 0 139 40" fill="none" xmlns="http://www.w3.org/2000/svg">
<path d="M0 11.2458C0 5.0349 5.0349 0 11.2458 0V39.8653C5.0349 39.8653 0 34.8304 0 28.6196V11.2458Z" fill="#3A1F5D"/>
<path d="M11.313 0C14.3134 3.57797e-08 17.1909 1.19192 19.3125 3.31353C21.4342 5.43515 22.6261 8.3127 22.6261 11.3131C22.6261 14.3135 21.4342 17.1911 19.3126 19.3127C17.1909 21.4344 14.3134 22.6262 11.313 22.6262V16.9697C12.8132 16.9697 14.2519 16.3737 15.3128 15.3129C16.3736 14.2521 16.9695 12.8134 16.9695 11.3132C16.9695 9.8129 16.3736 8.37415 15.3127 7.31335C14.2519 6.2525 12.8132 5.65655 11.313 5.65655V0Z" fill="#3A1F5D"/>
<path d="M11.3132 40C8.3127 40 5.43515 38.8081 3.31354 36.6865C1.19192 34.5648 6.3189e-07 31.6873 0 28.6869C-6.3189e-07 25.6864 1.19192 22.8089 3.31353 20.6873C5.43515 18.5657 8.3127 17.3737 11.3131 17.3737L11.3132 23.0303C9.8129 23.0303 8.37415 23.6263 7.31335 24.6871C6.2525 25.7479 5.65655 27.1867 5.65655 28.6869C5.65655 30.1871 6.2525 31.6259 7.31335 32.6867C8.37415 33.7475 9.8129 34.3434 11.3132 34.3434V40Z" fill="#3A1F5D"/>
<path d="M11.313 40C12.7986 40 14.2697 39.7074 15.6423 39.1388C17.0149 38.5703 18.262 37.737 19.3125 36.6865C20.3631 35.6359 21.1964 34.3888 21.7649 33.0162C22.3335 31.6436 22.6261 30.1725 22.6261 28.6869C22.6261 27.2012 22.3335 25.7301 21.7649 24.3575C21.1964 22.985 20.3631 21.7378 19.3125 20.6873C18.262 19.6368 17.0149 18.8034 15.6423 18.2349C14.2697 17.6664 12.7986 17.3737 11.313 17.3737V28.6869V40Z" fill="#E15249"/>
<path d="M11.3132 0C8.3127 -3.57797e-08 5.43515 1.19192 3.31354 3.31354C1.19192 5.43515 2.62306e-07 8.3127 0 11.3132C-2.62306e-07 14.3136 1.19192 17.1911 3.31354 19.3127C5.43515 21.4344 8.3127 22.6262 11.3132 22.6262V16.9697C9.8129 16.9697 8.37415 16.3738 7.31335 15.313C6.2525 14.2521 5.65655 12.8134 5.65655 11.3132C5.65655 9.8129 6.2525 8.37415 7.31335 7.31335C8.37415 6.2525 9.8129 5.65655 11.3132 5.65655V0Z" fill="#E15249"/>
<path d="M10.7074 34.7476C14.2033 34.7476 17.0373 32.019 17.0373 28.6533C17.0373 25.2875 14.2033 22.559 10.7074 22.559C7.21146 22.559 4.37744 25.2875 4.37744 28.6533C4.37744 32.019 7.21146 34.7476 10.7074 34.7476Z" fill="white"/>
<path d="M11.3129 17.3738C14.8088 17.3738 17.6428 14.6453 17.6428 11.2795C17.6428 7.91369 14.8088 5.18518 11.3129 5.18518C7.81693 5.18518 4.98291 7.91369 4.98291 11.2795C4.98291 14.6453 7.81693 17.3738 11.3129 17.3738Z" fill="white"/>
<path d="M42.2036 23.919C42.2036 24.6221 42.0604 25.2504 41.7739 25.8037C41.494 26.3571 41.1066 26.8161 40.6118 27.1807C40.0389 27.6104 39.4074 27.9164 38.7173 28.0987C38.0337 28.2809 37.1646 28.3721 36.1099 28.3721H29.7622V13.8311H35.4068C36.5786 13.8311 37.4348 13.8701 37.9751 13.9483C38.522 14.0264 39.0624 14.1989 39.5962 14.4658C40.1496 14.7458 40.5598 15.1234 40.8267 15.5987C41.1001 16.0674 41.2368 16.6045 41.2368 17.21C41.2368 17.9131 41.0513 18.5349 40.6802 19.0752C40.3091 19.6091 39.785 20.0257 39.1079 20.3252V20.4033C40.0585 20.5921 40.8104 20.9828 41.3638 21.5752C41.9237 22.1677 42.2036 22.9489 42.2036 23.919ZM37.3989 17.9424C37.3989 17.7015 37.3371 17.4606 37.2134 17.2198C37.0962 16.9789 36.8846 16.7998 36.5786 16.6826C36.3052 16.5785 35.9634 16.5231 35.5532 16.5166C35.1496 16.5036 34.5799 16.4971 33.8443 16.4971H33.4927V19.5733H34.0786C34.6711 19.5733 35.1756 19.5635 35.5923 19.544C36.009 19.5244 36.3377 19.4593 36.5786 19.3487C36.9172 19.1989 37.1385 19.0069 37.2427 18.7725C37.3469 18.5316 37.3989 18.2549 37.3989 17.9424ZM38.3169 23.8604C38.3169 23.3981 38.2258 23.0433 38.0435 22.7959C37.8677 22.542 37.565 22.3532 37.1353 22.2295C36.8423 22.1449 36.4387 22.0993 35.9243 22.0928C35.41 22.0863 34.8729 22.083 34.313 22.083H33.4927V25.7061H33.7661C34.8208 25.7061 35.576 25.7028 36.0318 25.6963C36.4875 25.6898 36.9074 25.6052 37.2915 25.4424C37.6821 25.2796 37.9491 25.0648 38.0923 24.7979C38.242 24.5244 38.3169 24.2119 38.3169 23.8604ZM55.7288 28.3721H52.2133V27.1612C51.5623 27.6559 50.9668 28.0336 50.4263 28.294C49.8859 28.5479 49.2414 28.6748 48.4927 28.6748C47.2818 28.6748 46.3475 28.3265 45.69 27.6299C45.0389 26.9333 44.7134 25.9046 44.7134 24.544V17.4053H48.2486V22.8448C48.2486 23.3981 48.2648 23.8604 48.2974 24.2315C48.3364 24.5961 48.4211 24.8988 48.5513 25.1397C48.675 25.3806 48.8605 25.5563 49.1079 25.667C49.3618 25.7777 49.7134 25.833 50.1628 25.833C50.4623 25.833 50.7943 25.7777 51.1588 25.667C51.5233 25.5563 51.8748 25.3936 52.2133 25.1787V17.4053H55.7288V28.3721ZM64.7718 28.6651C63.8148 28.6651 62.9393 28.5511 62.1453 28.3233C61.3573 28.0954 60.6703 27.7438 60.0843 27.2686C59.5053 26.7933 59.0558 26.1944 58.7368 25.4717C58.4178 24.749 58.2583 23.9027 58.2583 22.9326C58.2583 21.9105 58.4278 21.0283 58.7663 20.2862C59.1113 19.544 59.5898 18.9287 60.2018 18.4405C60.7943 17.9782 61.4778 17.6397 62.2523 17.4248C63.0273 17.21 63.8313 17.1026 64.6648 17.1026C65.4133 17.1026 66.1033 17.1839 66.7348 17.3467C67.3663 17.5095 67.9558 17.7211 68.5023 17.9815V20.9795H68.0043C67.8678 20.8623 67.7018 20.7256 67.5063 20.5694C67.3178 20.4131 67.0833 20.2601 66.8033 20.1104C66.5363 19.9671 66.2433 19.85 65.9243 19.7588C65.6053 19.6612 65.2343 19.6123 64.8113 19.6123C63.8738 19.6123 63.1508 19.9118 62.6433 20.5108C62.1418 21.1032 61.8913 21.9105 61.8913 22.9326C61.8913 23.9873 62.1483 24.7881 62.6628 25.335C63.1833 25.8819 63.9193 26.1553 64.8698 26.1553C65.3123 26.1553 65.7093 26.1065 66.0613 26.0088C66.4193 25.9046 66.7153 25.7842 66.9498 25.6475C67.1713 25.5173 67.3663 25.3806 67.5358 25.2373C67.7048 25.0941 67.8613 24.9541 68.0043 24.8174H68.5023V27.8155C67.9493 28.0759 67.3698 28.2809 66.7643 28.4307C66.1653 28.5869 65.5013 28.6651 64.7718 28.6651ZM82.4773 28.3721H78.3853L75.3093 23.5967L74.3523 24.7588V28.3721H70.8363V13.1768H74.3523V22.249L78.1413 17.4053H82.1938L78.2488 22.1319L82.4773 28.3721ZM93.7858 24.8955C93.7858 26.0283 93.2778 26.9431 92.2623 27.6397C91.2468 28.3298 89.8568 28.6748 88.0923 28.6748C87.1158 28.6748 86.2303 28.5837 85.4363 28.4014C84.6418 28.2191 84.0038 28.0173 83.5218 27.7959V24.9053H83.8443C84.0203 25.029 84.2218 25.1657 84.4498 25.3155C84.6843 25.4587 85.0128 25.6149 85.4363 25.7842C85.8008 25.9339 86.2143 26.0642 86.6763 26.1748C87.1388 26.279 87.6333 26.3311 88.1608 26.3311C88.8508 26.3311 89.3618 26.2562 89.6938 26.1065C90.0258 25.9502 90.1918 25.7224 90.1918 25.4229C90.1918 25.1559 90.0943 24.9639 89.8988 24.8467C89.7038 24.723 89.3328 24.6058 88.7858 24.4951C88.5253 24.4365 88.1703 24.3747 87.7213 24.3096C87.2783 24.238 86.8748 24.1533 86.5103 24.0557C85.5143 23.7953 84.7753 23.3916 84.2933 22.8448C83.8118 22.2914 83.5708 21.6045 83.5708 20.7842C83.5708 19.7295 84.0688 18.8539 85.0648 18.1573C86.0678 17.4541 87.4348 17.1026 89.1663 17.1026C89.9868 17.1026 90.7713 17.1872 91.5203 17.3565C92.2753 17.5192 92.8643 17.695 93.2878 17.8838V20.6573H92.9848C92.4643 20.2992 91.8683 20.0095 91.1978 19.7881C90.5338 19.5602 89.8598 19.4463 89.1763 19.4463C88.6098 19.4463 88.1313 19.5244 87.7408 19.6807C87.3568 19.8369 87.1648 20.0583 87.1648 20.3448C87.1648 20.6052 87.2523 20.8037 87.4283 20.9405C87.6038 21.0772 88.0173 21.2139 88.6683 21.3506C89.0268 21.4222 89.4108 21.4938 89.8208 21.5655C90.2373 21.6306 90.6543 21.7152 91.0708 21.8194C91.9953 22.0602 92.6788 22.4411 93.1218 22.9619C93.5643 23.4763 93.7858 24.1208 93.7858 24.8955ZM107.145 28.3721H103.61V22.9326C103.61 22.4899 103.587 22.0505 103.541 21.6143C103.496 21.1716 103.418 20.8461 103.307 20.6377C103.177 20.3968 102.985 20.2211 102.731 20.1104C102.484 19.9997 102.135 19.9444 101.686 19.9444C101.367 19.9444 101.041 19.9964 100.709 20.1006C100.384 20.2048 100.029 20.3708 99.6453 20.5987V28.3721H96.1293V13.1768H99.6453V18.6162C100.27 18.128 100.869 17.7536 101.442 17.4932C102.021 17.2328 102.663 17.1026 103.366 17.1026C104.551 17.1026 105.475 17.4476 106.139 18.1377C106.81 18.8278 107.145 19.8597 107.145 21.2334V28.3721ZM121.188 23.5381H113.141C113.193 24.3975 113.519 25.055 114.118 25.5108C114.723 25.9665 115.612 26.1944 116.784 26.1944C117.526 26.1944 118.245 26.0609 118.942 25.794C119.639 25.527 120.189 25.2406 120.592 24.9346H120.983V27.7569C120.189 28.0759 119.44 28.307 118.737 28.4502C118.034 28.5934 117.256 28.6651 116.403 28.6651C114.202 28.6651 112.516 28.1703 111.344 27.1807C110.172 26.1911 109.586 24.7816 109.586 22.9522C109.586 21.1423 110.14 19.71 111.247 18.6553C112.36 17.5941 113.883 17.0635 115.817 17.0635C117.601 17.0635 118.942 17.516 119.84 18.4209C120.739 19.3194 121.188 20.6149 121.188 22.3076V23.5381ZM117.692 21.4776C117.672 20.7419 117.49 20.1885 117.145 19.8174C116.8 19.4463 116.263 19.2608 115.534 19.2608C114.857 19.2608 114.3 19.4365 113.864 19.7881C113.428 20.1397 113.183 20.7028 113.131 21.4776H117.692ZM127.184 28.3721H123.668V13.1768H127.184V28.3721ZM137.614 15.7549H137.35C137.194 15.7093 136.989 15.6573 136.735 15.5987C136.487 15.5401 136.221 15.5108 135.934 15.5108C135.244 15.5108 134.775 15.6345 134.528 15.8819C134.287 16.1293 134.166 16.6078 134.166 17.3174V17.4053H136.881V19.7881H134.284V28.3721H130.768V19.7881H129.264V17.4053H130.768V17.1026C130.768 15.7614 131.123 14.7556 131.833 14.085C132.549 13.4144 133.629 13.0791 135.075 13.0791C135.596 13.0791 136.068 13.0987 136.491 13.1377C136.914 13.1703 137.288 13.2158 137.614 13.2744V15.7549Z" fill="url(#paint0_linear_198_155)"/>
<defs>
<linearGradient id="paint0_linear_198_155" x1="83.2558" y1="8.37205" x2="83.2558" y2="30.6977" gradientUnits="userSpaceOnUse">
<stop stop-color="#E15249"/>
<stop offset="0.890625" stop-color="#3A1F5D"/>
</linearGradient>
</defs>
</svg>
