<svg width="38" height="38" viewBox="0 0 38 38" fill="none" xmlns="http://www.w3.org/2000/svg">
<path fill-rule="evenodd" clip-rule="evenodd" d="M25.6663 13.9999C25.6663 15.768 24.964 17.4637 23.7137 18.714C22.4635 19.9642 20.7678 20.6666 18.9997 20.6666C17.2316 20.6666 15.5359 19.9642 14.2856 18.714C13.0354 17.4637 12.333 15.768 12.333 13.9999C12.333 12.2318 13.0354 10.5361 14.2856 9.28587C15.5359 8.03563 17.2316 7.33325 18.9997 7.33325C20.7678 7.33325 22.4635 8.03563 23.7137 9.28587C24.964 10.5361 25.6663 12.2318 25.6663 13.9999ZM22.333 13.9999C22.333 14.884 21.9818 15.7318 21.3567 16.3569C20.7316 16.9821 19.8837 17.3333 18.9997 17.3333C18.1156 17.3333 17.2678 16.9821 16.6427 16.3569C16.0175 15.7318 15.6663 14.884 15.6663 13.9999C15.6663 13.1159 16.0175 12.268 16.6427 11.6429C17.2678 11.0178 18.1156 10.6666 18.9997 10.6666C19.8837 10.6666 20.7316 11.0178 21.3567 11.6429C21.9818 12.268 22.333 13.1159 22.333 13.9999Z" fill="black"/>
<path fill-rule="evenodd" clip-rule="evenodd" d="M18.9998 0.666626C8.87484 0.666626 0.666504 8.87496 0.666504 19C0.666504 29.125 8.87484 37.3333 18.9998 37.3333C29.1248 37.3333 37.3332 29.125 37.3332 19C37.3332 8.87496 29.1248 0.666626 18.9998 0.666626ZM3.99984 19C3.99984 22.4833 5.18817 25.69 7.17984 28.2366C8.57856 26.3998 10.383 24.9112 12.4522 23.8871C14.5214 22.8631 16.7994 22.3313 19.1082 22.3333C21.3871 22.3311 23.6364 22.8492 25.6847 23.8479C27.7331 24.8467 29.5264 26.2998 30.9282 28.0966C32.3723 26.2026 33.3446 23.992 33.7647 21.6476C34.1848 19.3032 34.0406 16.8925 33.344 14.6149C32.6474 12.3373 31.4185 10.2584 29.759 8.55002C28.0994 6.84167 26.0569 5.55306 23.8005 4.79081C21.544 4.02856 19.1385 3.81458 16.7829 4.16658C14.4274 4.51858 12.1895 5.42645 10.2545 6.81505C8.31942 8.20365 6.74286 10.0331 5.65522 12.152C4.56758 14.2708 4.00014 16.6182 3.99984 19ZM18.9998 34C15.5564 34.0051 12.2169 32.8205 9.5465 30.6466C10.6214 29.1079 12.0521 27.8515 13.7168 26.9844C15.3816 26.1174 17.2312 25.6653 19.1082 25.6666C20.9618 25.6651 22.789 26.1059 24.4381 26.9523C26.0871 27.7988 27.5104 29.0264 28.5898 30.5333C25.8987 32.7778 22.5041 34.0049 18.9998 34Z" fill="black"/>
</svg>
