<svg width="28" height="24" viewBox="0 0 28 24" fill="none" xmlns="http://www.w3.org/2000/svg">
<path d="M6.79096 21H20.3728C19.241 21 16.9773 20.4 16.9773 18V16H3.39551V18C3.39551 20.4 5.65914 21 6.79096 21Z" fill="black"/>
<path d="M5.65914 13V5C5.65914 4.46957 5.89763 3.96086 6.32215 3.58579C6.74666 3.21071 7.32243 3 7.92278 3H21.5046C22.105 3 22.6807 3.21071 23.1052 3.58579C23.5297 3.96086 23.7682 4.46957 23.7682 5V18C23.7682 19 23.0891 21 20.3728 21M20.3728 21H6.79096C5.65914 21 3.39551 20.4 3.39551 18V16H16.9773V18C16.9773 20.4 19.241 21 20.3728 21ZM10.1864 7H19.241M10.1864 11H14.7137" stroke="black" stroke-width="2" stroke-linecap="round" stroke-linejoin="round"/>
</svg>
